<svg xmlns="http://www.w3.org/2000/svg" width="1400" height="780">
<defs><marker id="arrow" markerWidth="10" markerHeight="7" refX="9" refY="3.5" orient="auto"><polygon points="0 0,10 3.5,0 7" fill="#667085"/></marker></defs>
<rect width="100%" height="100%" fill="white"/><text x="700" y="55" text-anchor="middle" font-family="Arial" font-size="30" font-weight="700" fill="#10233F">Deployment topology production</text>
<path d="M305,156.0 C350.0,156.0 350.0,156.0 395,156.0" fill="none" stroke="#667085" stroke-width="2" marker-end="url(#arrow)"/><text x="350.0" y="148.0" text-anchor="middle" font-family="Arial" font-size="15" fill="#475467">443</text><path d="M655,156.0 C700.0,156.0 700.0,156.0 745,156.0" fill="none" stroke="#667085" stroke-width="2" marker-end="url(#arrow)"/><text x="700.0" y="148.0" text-anchor="middle" font-family="Arial" font-size="15" fill="#475467">HTTP</text><path d="M1005,156.0 C1050.0,156.0 1050.0,156.0 1095,156.0" fill="none" stroke="#667085" stroke-width="2" marker-end="url(#arrow)"/><text x="1050.0" y="148.0" text-anchor="middle" font-family="Arial" font-size="15" fill="#475467">SQL</text><path d="M1005,156.0 C1050.0,156.0 1050.0,306.0 1095,306.0" fill="none" stroke="#667085" stroke-width="2" marker-end="url(#arrow)"/><text x="1050.0" y="223.0" text-anchor="middle" font-family="Arial" font-size="15" fill="#475467">cache</text><path d="M1005,156.0 C1050.0,156.0 1050.0,456.0 1095,456.0" fill="none" stroke="#667085" stroke-width="2" marker-end="url(#arrow)"/><text x="1050.0" y="298.0" text-anchor="middle" font-family="Arial" font-size="15" fill="#475467">feedback</text><path d="M1005,156.0 C1050.0,156.0 1050.0,606.0 1095,606.0" fill="none" stroke="#667085" stroke-width="2" marker-end="url(#arrow)"/><text x="1050.0" y="373.0" text-anchor="middle" font-family="Arial" font-size="15" fill="#475467">files</text><rect x="45" y="110" width="260" height="92" rx="16" fill="#EAF2FF" stroke="#2367D1" stroke-width="2"/><text x="175.0" y="148" text-anchor="middle" font-family="Arial" font-size="20" fill="#10233F">Browser / Mobile</text><text x="175.0" y="172" text-anchor="middle" font-family="Arial" font-size="20" fill="#10233F">HTTPS</text><rect x="395" y="110" width="260" height="92" rx="16" fill="#E8FAF7" stroke="#2367D1" stroke-width="2"/><text x="525.0" y="148" text-anchor="middle" font-family="Arial" font-size="20" fill="#10233F">Cloudflare / Caddy</text><text x="525.0" y="172" text-anchor="middle" font-family="Arial" font-size="20" fill="#10233F">TLS · reverse proxy</text><rect x="745" y="110" width="260" height="92" rx="16" fill="#FFF6E5" stroke="#2367D1" stroke-width="2"/><text x="875.0" y="148" text-anchor="middle" font-family="Arial" font-size="20" fill="#10233F">formbricks-ai-lab-staging</text><text x="875.0" y="172" text-anchor="middle" font-family="Arial" font-size="20" fill="#10233F">Next.js + workers</text><rect x="745" y="260" width="260" height="92" rx="16" fill="#FFF6E5" stroke="#2367D1" stroke-width="2"/><text x="875.0" y="298" text-anchor="middle" font-family="Arial" font-size="20" fill="#10233F">Cube analytics</text><rect x="1095" y="110" width="260" height="92" rx="16" fill="#F3EEFF" stroke="#2367D1" stroke-width="2"/><text x="1225.0" y="148" text-anchor="middle" font-family="Arial" font-size="20" fill="#10233F">PostgreSQL</text><rect x="1095" y="260" width="260" height="92" rx="16" fill="#F3EEFF" stroke="#2367D1" stroke-width="2"/><text x="1225.0" y="298" text-anchor="middle" font-family="Arial" font-size="20" fill="#10233F">Valkey/Redis</text><rect x="1095" y="410" width="260" height="92" rx="16" fill="#F3EEFF" stroke="#2367D1" stroke-width="2"/><text x="1225.0" y="448" text-anchor="middle" font-family="Arial" font-size="20" fill="#10233F">Hub API + Worker</text><text x="1225.0" y="472" text-anchor="middle" font-family="Arial" font-size="20" fill="#10233F">Taxonomy service</text><rect x="1095" y="560" width="260" height="92" rx="16" fill="#F3EEFF" stroke="#2367D1" stroke-width="2"/><text x="1225.0" y="598" text-anchor="middle" font-family="Arial" font-size="20" fill="#10233F">RustFS/S3</text></svg>