<svg xmlns="http://www.w3.org/2000/svg" width="1400" height="480">
<defs><marker id="arrow" markerWidth="10" markerHeight="7" refX="9" refY="3.5" orient="auto"><polygon points="0 0,10 3.5,0 7" fill="#667085"/></marker></defs>
<rect width="100%" height="100%" fill="white"/><text x="700" y="55" text-anchor="middle" font-family="Arial" font-size="30" font-weight="700" fill="#10233F">ERD logic: các thực thể cốt lõi</text>
<path d="M305,156.0 C350.0,156.0 350.0,156.0 395,156.0" fill="none" stroke="#667085" stroke-width="2" marker-end="url(#arrow)"/><text x="350.0" y="148.0" text-anchor="middle" font-family="Arial" font-size="15" fill="#475467">1:N</text><path d="M305,306.0 C175.0,306.0 175.0,156.0 45,156.0" fill="none" stroke="#667085" stroke-width="2" marker-end="url(#arrow)"/><text x="175.0" y="223.0" text-anchor="middle" font-family="Arial" font-size="15" fill="#475467">N:M</text><path d="M655,156.0 C525.0,156.0 525.0,306.0 395,306.0" fill="none" stroke="#667085" stroke-width="2" marker-end="url(#arrow)"/><text x="525.0" y="223.0" text-anchor="middle" font-family="Arial" font-size="15" fill="#475467">1:N</text><path d="M655,306.0 C700.0,306.0 700.0,156.0 745,156.0" fill="none" stroke="#667085" stroke-width="2" marker-end="url(#arrow)"/><text x="700.0" y="223.0" text-anchor="middle" font-family="Arial" font-size="15" fill="#475467">1:N</text><path d="M1005,306.0 C875.0,306.0 875.0,156.0 745,156.0" fill="none" stroke="#667085" stroke-width="2" marker-end="url(#arrow)"/><text x="875.0" y="223.0" text-anchor="middle" font-family="Arial" font-size="15" fill="#475467">0:N</text><path d="M655,156.0 C875.0,156.0 875.0,156.0 1095,156.0" fill="none" stroke="#667085" stroke-width="2" marker-end="url(#arrow)"/><text x="875.0" y="148.0" text-anchor="middle" font-family="Arial" font-size="15" fill="#475467">N:M</text><path d="M655,156.0 C875.0,156.0 875.0,306.0 1095,306.0" fill="none" stroke="#667085" stroke-width="2" marker-end="url(#arrow)"/><text x="875.0" y="223.0" text-anchor="middle" font-family="Arial" font-size="15" fill="#475467">1:N</text><rect x="45" y="110" width="260" height="92" rx="16" fill="#EAF2FF" stroke="#2367D1" stroke-width="2"/><text x="175.0" y="148" text-anchor="middle" font-family="Arial" font-size="20" fill="#10233F">Organization</text><text x="175.0" y="172" text-anchor="middle" font-family="Arial" font-size="20" fill="#10233F">Membership · Invite</text><rect x="45" y="260" width="260" height="92" rx="16" fill="#EAF2FF" stroke="#2367D1" stroke-width="2"/><text x="175.0" y="298" text-anchor="middle" font-family="Arial" font-size="20" fill="#10233F">User · Account · Session</text><rect x="395" y="110" width="260" height="92" rx="16" fill="#E8FAF7" stroke="#2367D1" stroke-width="2"/><text x="525.0" y="148" text-anchor="middle" font-family="Arial" font-size="20" fill="#10233F">Workspace</text><text x="525.0" y="172" text-anchor="middle" font-family="Arial" font-size="20" fill="#10233F">Team · WorkspaceTeam</text><rect x="395" y="260" width="260" height="92" rx="16" fill="#E8FAF7" stroke="#2367D1" stroke-width="2"/><text x="525.0" y="298" text-anchor="middle" font-family="Arial" font-size="20" fill="#10233F">Survey</text><text x="525.0" y="322" text-anchor="middle" font-family="Arial" font-size="20" fill="#10233F">Registry · Version · Publication</text><rect x="745" y="110" width="260" height="92" rx="16" fill="#FFF6E5" stroke="#2367D1" stroke-width="2"/><text x="875.0" y="148" text-anchor="middle" font-family="Arial" font-size="20" fill="#10233F">Response · Display</text><text x="875.0" y="172" text-anchor="middle" font-family="Arial" font-size="20" fill="#10233F">Quota links · Tags</text><rect x="745" y="260" width="260" height="92" rx="16" fill="#FFF6E5" stroke="#2367D1" stroke-width="2"/><text x="875.0" y="298" text-anchor="middle" font-family="Arial" font-size="20" fill="#10233F">Contact · Attributes</text><text x="875.0" y="322" text-anchor="middle" font-family="Arial" font-size="20" fill="#10233F">Segment</text><rect x="1095" y="110" width="260" height="92" rx="16" fill="#F3EEFF" stroke="#2367D1" stroke-width="2"/><text x="1225.0" y="148" text-anchor="middle" font-family="Arial" font-size="20" fill="#10233F">FeedbackDirectory</text><text x="1225.0" y="172" text-anchor="middle" font-family="Arial" font-size="20" fill="#10233F">Source · Field mapping</text><rect x="1095" y="260" width="260" height="92" rx="16" fill="#F3EEFF" stroke="#2367D1" stroke-width="2"/><text x="1225.0" y="298" text-anchor="middle" font-family="Arial" font-size="20" fill="#10233F">Chart · Dashboard</text><text x="1225.0" y="322" text-anchor="middle" font-family="Arial" font-size="20" fill="#10233F">DashboardWidget</text></svg>